<svg width="286" height="218" viewBox="0 0 286 218" fill="none" xmlns="http://www.w3.org/2000/svg">
<path fill-rule="evenodd" clip-rule="evenodd" d="M85 0.5H286V168.5H85V0.5ZM85.3141 0.8H109.811V24.2H85.3141V0.8ZM110.439 0.8H134.936V24.2H110.439V0.8ZM160.061 0.8H135.564V24.2H160.061V0.8ZM160.689 0.8H185.186V24.2H160.689V0.8ZM210.311 0.8H185.814V24.2H210.311V0.8ZM210.939 0.8H235.436V24.2H210.939V0.8ZM260.561 0.8H236.064V24.2H260.561V0.8ZM261.189 0.8H285.686V24.2H261.189V0.8ZM109.811 24.8H85.3141V48.2H109.811V24.8ZM110.439 24.8H134.936V48.2H110.439V24.8ZM160.061 24.8H135.564V48.2H160.061V24.8ZM160.689 24.8H185.186V48.2H160.689V24.8ZM210.311 24.8H185.814V48.2H210.311V24.8ZM210.939 24.8H235.436V48.2H210.939V24.8ZM260.561 24.8H236.064V48.2H260.561V24.8ZM261.189 24.8H285.686V48.2H261.189V24.8ZM109.811 48.8H85.3141V72.2H109.811V48.8ZM110.439 48.8H134.936V72.2H110.439V48.8ZM160.061 48.8H135.564V72.2H160.061V48.8ZM160.689 48.8H185.186V72.2H160.689V48.8ZM210.311 48.8H185.814V72.2H210.311V48.8ZM210.939 48.8H235.436V72.2H210.939V48.8ZM260.561 48.8H236.064V72.2H260.561V48.8ZM261.189 48.8H285.686V72.2H261.189V48.8ZM109.811 72.8H85.3141V96.2H109.811V72.8ZM110.439 72.8H134.936V96.2H110.439V72.8ZM160.061 72.8H135.564V96.2H160.061V72.8ZM160.689 72.8H185.186V96.2H160.689V72.8ZM210.311 72.8H185.814V96.2H210.311V72.8ZM210.939 72.8H235.436V96.2H210.939V72.8ZM260.561 72.8H236.064V96.2H260.561V72.8ZM261.189 72.8H285.686V96.2H261.189V72.8ZM109.811 96.8H85.3141V120.2H109.811V96.8ZM110.439 96.8H134.936V120.2H110.439V96.8ZM160.061 96.8H135.564V120.2H160.061V96.8ZM160.689 96.8H185.186V120.2H160.689V96.8ZM210.311 96.8H185.814V120.2H210.311V96.8ZM210.939 96.8H235.436V120.2H210.939V96.8ZM260.561 96.8H236.064V120.2H260.561V96.8ZM261.189 96.8H285.686V120.2H261.189V96.8ZM109.811 120.8H85.3141V144.2H109.811V120.8ZM110.439 120.8H134.936V144.2H110.439V120.8ZM160.061 120.8H135.564V144.2H160.061V120.8ZM160.689 120.8H185.186V144.2H160.689V120.8ZM210.311 120.8H185.814V144.2H210.311V120.8ZM210.939 120.8H235.436V144.2H210.939V120.8ZM260.561 120.8H236.064V144.2H260.561V120.8ZM261.189 120.8H285.686V144.2H261.189V120.8ZM109.811 144.8H85.3141V168.2H109.811V144.8ZM110.439 144.8H134.936V168.2H110.439V144.8ZM160.061 144.8H135.564V168.2H160.061V144.8ZM160.689 144.8H185.186V168.2H160.689V144.8ZM210.311 144.8H185.814V168.2H210.311V144.8ZM210.939 144.8H235.436V168.2H210.939V144.8ZM260.561 144.8H236.064V168.2H260.561V144.8ZM261.189 144.8H285.686V168.2H261.189V144.8Z" fill="#0D1934"/>
<g filter="url(#filter0_f_55_144)">
<ellipse cx="107" cy="138.5" rx="77" ry="60" fill="#2E454F"/>
</g>
<defs>
<filter id="filter0_f_55_144" x="0" y="48.5" width="214" height="180" filterUnits="userSpaceOnUse" color-interpolation-filters="sRGB">
<feFlood flood-opacity="0" result="BackgroundImageFix"/>
<feBlend mode="normal" in="SourceGraphic" in2="BackgroundImageFix" result="shape"/>
<feGaussianBlur stdDeviation="15" result="effect1_foregroundBlur_55_144"/>
</filter>
</defs>
</svg>
