<svg width="28" height="28" viewBox="0 0 28 28" fill="none" xmlns="http://www.w3.org/2000/svg">
<path d="M14 16.9167C15.6108 16.9167 16.9166 15.6108 16.9166 14C16.9166 12.3892 15.6108 11.0833 14 11.0833C12.3891 11.0833 11.0833 12.3892 11.0833 14C11.0833 15.6108 12.3891 16.9167 14 16.9167Z" stroke="#CCFDA4" stroke-width="1.5" stroke-miterlimit="10" stroke-linecap="round" stroke-linejoin="round"/>
<path d="M21.5833 11.0833V16.9167" stroke="#CCFDA4" stroke-width="1.5" stroke-miterlimit="10" stroke-linecap="round" stroke-linejoin="round"/>
<path d="M5.83335 25.6667C8.41068 25.6667 10.5 23.5773 10.5 21C10.5 18.4227 8.41068 16.3333 5.83335 16.3333C3.25602 16.3333 1.16669 18.4227 1.16669 21C1.16669 23.5773 3.25602 25.6667 5.83335 25.6667Z" stroke="#CCFDA4" stroke-width="1.5" stroke-miterlimit="10" stroke-linecap="round" stroke-linejoin="round"/>
<path d="M6.12502 19.5417V20.6267C6.12502 21.035 5.91503 21.42 5.55337 21.63L4.66669 22.1667" stroke="#CCFDA4" stroke-width="1.5" stroke-miterlimit="10" stroke-linecap="round" stroke-linejoin="round"/>
<path d="M2.33331 17.7333V10.5C2.33331 6.41666 4.66665 4.66666 8.16665 4.66666H19.8333C23.3333 4.66666 25.6666 6.41666 25.6666 10.5V17.5C25.6666 21.5833 23.3333 23.3333 19.8333 23.3333H9.91665" stroke="#CCFDA4" stroke-width="1.5" stroke-miterlimit="10" stroke-linecap="round" stroke-linejoin="round"/>
</svg>
