<svg width="28" height="28" viewBox="0 0 28 28" fill="none" xmlns="http://www.w3.org/2000/svg">
<path d="M14.0002 16.9167C15.611 16.9167 16.9168 15.6108 16.9168 14C16.9168 12.3892 15.611 11.0833 14.0002 11.0833C12.3893 11.0833 11.0835 12.3892 11.0835 14C11.0835 15.6108 12.3893 16.9167 14.0002 16.9167Z" stroke="#40FFD1" stroke-width="1.5" stroke-miterlimit="10" stroke-linecap="round" stroke-linejoin="round"/>
<path d="M21.5835 11.0833V16.9167" stroke="#40FFD1" stroke-width="1.5" stroke-miterlimit="10" stroke-linecap="round" stroke-linejoin="round"/>
<path d="M5.83317 25.6667C8.4105 25.6667 10.4998 23.5773 10.4998 21C10.4998 18.4227 8.4105 16.3333 5.83317 16.3333C3.25584 16.3333 1.1665 18.4227 1.1665 21C1.1665 23.5773 3.25584 25.6667 5.83317 25.6667Z" stroke="#40FFD1" stroke-width="1.5" stroke-miterlimit="10" stroke-linecap="round" stroke-linejoin="round"/>
<path d="M6.12484 19.5417V20.6267C6.12484 21.035 5.91485 21.42 5.55318 21.63L4.6665 22.1667" stroke="#40FFD1" stroke-width="1.5" stroke-miterlimit="10" stroke-linecap="round" stroke-linejoin="round"/>
<path d="M2.3335 17.7333V10.5C2.3335 6.41666 4.66683 4.66666 8.16683 4.66666H19.8335C23.3335 4.66666 25.6668 6.41666 25.6668 10.5V17.5C25.6668 21.5833 23.3335 23.3333 19.8335 23.3333H9.91683" stroke="#40FFD1" stroke-width="1.5" stroke-miterlimit="10" stroke-linecap="round" stroke-linejoin="round"/>
</svg>
