<svg width="25" height="24" viewBox="0 0 25 24" fill="none" xmlns="http://www.w3.org/2000/svg">
<path d="M22.2 8.5C22.2 12.09 19.29 15 15.7 15C15.53 15 15.35 14.99 15.18 14.98C14.93 11.81 12.3899 9.26999 9.21994 9.01999C9.20994 8.84999 9.19995 8.67 9.19995 8.5C9.19995 4.91 12.11 2 15.7 2C19.29 2 22.2 4.91 22.2 8.5Z" stroke="#CCFDA4" stroke-width="1.5" stroke-linecap="round" stroke-linejoin="round"/>
<path d="M15.2 15.5C15.2 19.09 12.29 22 8.69995 22C5.10995 22 2.19995 19.09 2.19995 15.5C2.19995 11.91 5.10995 9 8.69995 9C8.86995 9 9.04994 9.00999 9.21994 9.01999C12.3899 9.26999 14.93 11.81 15.18 14.98C15.19 15.15 15.2 15.33 15.2 15.5Z" stroke="#CCFDA4" stroke-width="1.5" stroke-linecap="round" stroke-linejoin="round"/>
<path d="M5.78995 2H3.19995C2.64995 2 2.19995 2.45 2.19995 3V5.59C2.19995 6.48 3.27994 6.92999 3.90994 6.29999L6.49994 3.70999C7.11994 3.07999 6.67995 2 5.78995 2Z" stroke="#CCFDA4" stroke-width="1.5" stroke-linecap="round" stroke-linejoin="round"/>
<path d="M18.6099 22H21.1999C21.7499 22 22.1999 21.55 22.1999 21V18.41C22.1999 17.52 21.12 17.07 20.49 17.7L17.9 20.29C17.28 20.92 17.7199 22 18.6099 22Z" stroke="#CCFDA4" stroke-width="1.5" stroke-linecap="round" stroke-linejoin="round"/>
</svg>
