<svg width="25" height="24" viewBox="0 0 25 24" fill="none" xmlns="http://www.w3.org/2000/svg">
<path d="M22.2002 8.5C22.2002 12.09 19.2902 15 15.7002 15C15.5302 15 15.3502 14.99 15.1802 14.98C14.9302 11.81 12.3902 9.26999 9.22018 9.01999C9.21018 8.84999 9.2002 8.67 9.2002 8.5C9.2002 4.91 12.1102 2 15.7002 2C19.2902 2 22.2002 4.91 22.2002 8.5Z" stroke="#40FFD1" stroke-width="1.5" stroke-linecap="round" stroke-linejoin="round"/>
<path d="M15.2002 15.5C15.2002 19.09 12.2902 22 8.7002 22C5.1102 22 2.2002 19.09 2.2002 15.5C2.2002 11.91 5.1102 9 8.7002 9C8.8702 9 9.05018 9.00999 9.22018 9.01999C12.3902 9.26999 14.9302 11.81 15.1802 14.98C15.1902 15.15 15.2002 15.33 15.2002 15.5Z" stroke="#40FFD1" stroke-width="1.5" stroke-linecap="round" stroke-linejoin="round"/>
<path d="M5.79019 2H3.2002C2.6502 2 2.2002 2.45 2.2002 3V5.59C2.2002 6.48 3.28019 6.92999 3.91019 6.29999L6.50018 3.70999C7.12018 3.07999 6.68019 2 5.79019 2Z" stroke="#40FFD1" stroke-width="1.5" stroke-linecap="round" stroke-linejoin="round"/>
<path d="M18.6104 22H21.2004C21.7504 22 22.2004 21.55 22.2004 21V18.41C22.2004 17.52 21.1204 17.07 20.4904 17.7L17.9004 20.29C17.2804 20.92 17.7204 22 18.6104 22Z" stroke="#40FFD1" stroke-width="1.5" stroke-linecap="round" stroke-linejoin="round"/>
</svg>
